<?xml version="1.0" encoding="utf-8"?>
<!-- Generator: Adobe Illustrator 16.0.3, SVG Export Plug-In . SVG Version: 6.00 Build 0)  -->
<!DOCTYPE svg PUBLIC "-//W3C//DTD SVG 1.1//EN" "http://www.w3.org/Graphics/SVG/1.1/DTD/svg11.dtd">
<svg version="1.1" id="Layer_1" xmlns="http://www.w3.org/2000/svg" xmlns:xlink="http://www.w3.org/1999/xlink" x="0px" y="0px"
	 width="500px" height="500px" viewBox="0 0 500 500" enable-background="new 0 0 500 500" xml:space="preserve">
<g>
	<path d="M493.101,381c-3.176,5.352-5.739,11.205-9.653,15.948c-7.969,9.65-18.756,13.044-31.228,13.025
		c-103.535-0.143-207.071-0.063-310.605-0.057c-28.496,0.002-57.039-1.032-85.473,0.289C32.424,411.31,15.656,403.494,6.7,381
		c0-87.4,0-174.8,0-262.2c1.012-1.879,2.116-3.716,3.022-5.646c6.965-14.85,18.425-23.166,35.008-23.175
		c136.78-0.08,273.56-0.054,410.339-0.05c19.963,0.002,30.618,12.313,38.031,28.871C493.101,206.2,493.101,293.6,493.101,381z
		 M470.984,107.754c-4.655,6.498-6.678,10.06-9.383,12.988C408.77,177.936,355.87,235.065,302.955,292.182
		c-30.59,33.02-75.406,33.059-106.035,0.026c-52.94-57.09-105.831-114.229-158.663-171.421c-2.885-3.125-5.046-6.917-9.42-13.013
		c-2.694,8.322-6.616,14.848-6.651,21.394c-0.424,80.394-0.324,160.792-0.244,241.188c0.016,15.08,9.147,24.301,24.246,24.311
		c135.785,0.072,271.571,0.061,407.355-0.008c15.086-0.01,24.317-9.172,24.334-24.236c0.092-80.396,0.187-160.793-0.24-241.187
		C477.602,122.665,473.681,116.117,470.984,107.754z M45.103,105.375c2.966,3.466,4.677,5.611,6.536,7.619
		c51.636,55.755,103.269,111.512,154.941,167.232c26.682,28.771,59.865,28.867,86.543,0.133
		c51.919-55.924,103.742-111.936,155.58-167.936c1.759-1.898,3.241-4.052,5.613-7.049
		C317.524,105.375,182.368,105.375,45.103,105.375z"/>
</g>
</svg>
