<?xml version="1.0" encoding="utf-8"?>
<!-- Generator: Adobe Illustrator 16.0.3, SVG Export Plug-In . SVG Version: 6.00 Build 0)  -->
<!DOCTYPE svg PUBLIC "-//W3C//DTD SVG 1.1//EN" "http://www.w3.org/Graphics/SVG/1.1/DTD/svg11.dtd">
<svg version="1.1" id="Layer_1" xmlns="http://www.w3.org/2000/svg" xmlns:xlink="http://www.w3.org/1999/xlink" x="0px" y="0px"
	 width="512px" height="512px" viewBox="0 0 512 512" enable-background="new 0 0 512 512" xml:space="preserve">
<g>
	<path fill-rule="evenodd" clip-rule="evenodd" fill="#FFFFFF" d="M257,513c-60.333,0-120.667,0-181,0
		c-1.069-0.374-2.115-0.852-3.212-1.107c-12.873-3.006-25.059-7.542-35.705-15.646c-5.648-4.299-10.813-9.02-15.469-14.446
		c-7.098-8.271-12.688-17.33-16.347-27.548C3.597,449.591,2.407,444.756,1,440C1,317.667,1,195.333,1,73
		c3.435-10.466,6.217-21.056,12.413-30.566c6.763-10.383,14.98-19.104,24.85-26.325c5.991-4.384,12.501-8.047,19.568-10.479
		C62.827,3.909,67.939,2.53,73,1c122.333,0,244.667,0,367,0c10.924,3.258,21.813,6.371,31.543,12.829
		c8.92,5.92,16.862,12.817,23.245,21.252c7.016,9.273,12.798,19.335,15.187,31.003c0.69,3.37,2,6.614,3.025,9.916
		c0,120.333,0,240.667,0,361c-0.325,0.913-0.721,1.807-0.966,2.74c-2.366,9.007-4.459,18.147-9.291,26.235
		c-5.704,9.548-12.162,18.439-20.953,25.611c-9.904,8.08-20.317,14.85-32.929,17.823c-4.013,0.946-7.911,2.379-11.861,3.59
		c-33.667,0-67.333,0-101,0c0.029-2.498,0.083-4.996,0.084-7.494c0.004-59.148,0.003-118.297,0.005-177.445
		c0-1.833,0.056-3.666,0.031-5.498c-0.031-2.429,0.962-3.775,3.56-3.657c1.329,0.062,2.665-0.011,3.998-0.011
		c23.825-0.002,47.651,0.006,71.478-0.016c1.926-0.002,3.852-0.206,5.615-0.308c1.257-5.74,1.044-79.965-0.317-84.321
		c-27.692,0-55.596,0-83.608,0c-0.319-1.719-0.724-2.84-0.705-3.955c0.199-12.148,0.181-24.311,0.797-36.439
		c0.517-10.169,8.58-17.229,18.817-17.24c19.66-0.023,39.321-0.007,58.981-0.011c1.333,0,2.666-0.014,3.998-0.054
		c1.818-0.056,2.723-1.048,2.779-2.834c0.037-1.166,0.054-2.332,0.054-3.498c0.006-24.159,0.008-48.318,0.007-72.478
		c0-1.166-0.02-2.333-0.061-3.498c-0.064-1.821-1.062-2.716-2.849-2.762c-1.332-0.034-2.665-0.051-3.997-0.051
		c-18.661-0.004-37.322-0.052-55.983,0.012c-17.227,0.06-33.505,3.503-48.566,12.486c-10.235,6.104-19.184,13.498-26.606,22.704
		c-5.401,6.7-10.188,13.774-13.974,21.652c-3.617,7.527-6.547,15.12-8.67,23.192c-2.17,8.256-4.048,16.424-3.905,25.032
		c0.174,10.493,0.011,20.992-0.061,31.488c-0.013,1.934-0.281,3.864-0.47,6.272c-2.476,0-4.449,0-6.422,0
		c-16.661,0-33.323-0.011-49.984,0.008c-5.583,0.007-5.633,0.041-5.638,5.505c-0.019,24.492-0.018,48.985,0.013,73.478
		c0.002,1.75,0.293,3.5,0.502,5.833c20.756,0,40.996,0,61.639,0c0.148,2.895,0.365,5.18,0.367,7.465
		c0.021,34.823,0.005,69.646,0.018,104.468C256.937,458.352,256.975,485.676,257,513z"/>
	<path fill-rule="evenodd" clip-rule="evenodd" fill="none" d="M257,513c-0.025-27.324-0.063-54.648-0.074-81.974
		c-0.013-34.822,0.004-69.645-0.018-104.468c-0.002-2.285-0.219-4.57-0.367-7.465c-20.643,0-40.883,0-61.639,0
		c-0.209-2.333-0.5-4.083-0.502-5.833c-0.03-24.492-0.032-48.985-0.013-73.478c0.004-5.464,0.054-5.498,5.638-5.505
		c16.662-0.019,33.323-0.008,49.984-0.008c1.973,0,3.946,0,6.422,0c0.188-2.408,0.457-4.339,0.47-6.272
		c0.071-10.496,0.234-20.995,0.061-31.488c-0.143-8.608,1.735-16.776,3.905-25.032c2.123-8.072,5.053-15.665,8.67-23.192
		c3.785-7.878,8.572-14.952,13.974-21.652c7.423-9.206,16.371-16.6,26.606-22.704c15.062-8.983,31.34-12.427,48.566-12.486
		c18.661-0.063,37.322-0.016,55.983-0.012c1.332,0,2.665,0.017,3.997,0.051c1.787,0.046,2.784,0.94,2.849,2.762
		c0.041,1.165,0.061,2.332,0.061,3.498c0.001,24.159-0.001,48.318-0.007,72.478c0,1.166-0.017,2.332-0.054,3.498
		c-0.057,1.786-0.961,2.778-2.779,2.834c-1.332,0.04-2.665,0.054-3.998,0.054c-19.66,0.004-39.321-0.013-58.981,0.011
		c-10.237,0.012-18.301,7.071-18.817,17.24c-0.616,12.129-0.598,24.291-0.797,36.439c-0.019,1.115,0.386,2.236,0.705,3.955
		c28.013,0,55.916,0,83.608,0c1.361,4.356,1.574,78.581,0.317,84.321c-1.764,0.102-3.689,0.306-5.615,0.308
		c-23.826,0.021-47.652,0.014-71.478,0.016c-1.333,0-2.669,0.072-3.998,0.011c-2.598-0.118-3.591,1.229-3.56,3.657
		c0.024,1.832-0.031,3.665-0.031,5.498c-0.002,59.148-0.001,118.297-0.005,177.445c-0.001,2.498-0.055,4.996-0.084,7.494
		C309.667,513,283.333,513,257,513z"/>
	<path fill-rule="evenodd" clip-rule="evenodd" fill="none" d="M437,513c3.95-1.211,7.849-2.644,11.861-3.59
		c12.611-2.974,23.024-9.743,32.929-17.823c8.791-7.172,15.249-16.063,20.953-25.611c4.832-8.088,6.925-17.229,9.291-26.235
		c0.245-0.934,0.641-1.827,0.966-2.74c0,25.333,0,50.667,0,76C487.667,513,462.333,513,437,513z"/>
	<path fill-rule="evenodd" clip-rule="evenodd" fill="none" d="M1,440c1.407,4.756,2.597,9.591,4.267,14.253
		c3.66,10.218,9.25,19.277,16.347,27.548c4.657,5.427,9.821,10.147,15.469,14.446c10.646,8.104,22.832,12.64,35.705,15.646
		c1.097,0.256,2.143,0.733,3.212,1.107c-25,0-50,0-75,0C1,488.667,1,464.333,1,440z"/>
	<path fill-rule="evenodd" clip-rule="evenodd" fill="none" d="M513,76c-1.025-3.302-2.335-6.546-3.025-9.916
		c-2.389-11.668-8.171-21.729-15.187-31.003c-6.383-8.435-14.325-15.332-23.245-21.252C461.813,7.371,450.924,4.258,440,1
		c24.251,0,48.503,0,73,0C513,25.999,513,51,513,76z"/>
	<path fill-rule="evenodd" clip-rule="evenodd" fill="none" d="M73,1c-5.061,1.53-10.173,2.909-15.168,4.629
		c-7.067,2.433-13.578,6.096-19.568,10.479c-9.87,7.222-18.087,15.942-24.85,26.325C7.217,51.944,4.435,62.534,1,73C1,49,1,25,1,1
		C25,1,49,1,73,1z"/>
</g>
</svg>
