<?xml version="1.0" encoding="utf-8"?>
<!-- Generator: Adobe Illustrator 16.0.3, SVG Export Plug-In . SVG Version: 6.00 Build 0)  -->
<!DOCTYPE svg PUBLIC "-//W3C//DTD SVG 1.1//EN" "http://www.w3.org/Graphics/SVG/1.1/DTD/svg11.dtd">
<svg version="1.1" id="Layer_1" xmlns="http://www.w3.org/2000/svg" xmlns:xlink="http://www.w3.org/1999/xlink" x="0px" y="0px"
	 width="500px" height="500px" viewBox="0 0 500 500" enable-background="new 0 0 500 500" xml:space="preserve">
<g>
	<path d="M253.963,500c-8.889-17.418-17.208-33.713-25.521-50.011c-37.382-73.282-75.503-146.202-111.911-219.966
		C87.24,170.676,92.984,112.872,134.463,61.456c37.059-45.936,87.181-64.1,145.667-54.581
		c63.248,10.294,111.98,57.644,125.389,120.467c7.749,36.305,2.485,71.145-14.471,104.266
		c-36.577,71.449-73.018,142.966-109.507,214.459c-7.646,14.982-15.254,29.985-22.891,44.976
		C257.309,493.677,255.91,496.284,253.963,500z M254.105,252.174c51.142-0.047,92.701-41.703,92.825-93.04
		c0.123-50.896-42.134-93.072-93.028-92.854c-51.286,0.22-92.959,41.995-92.829,93.057
		C161.205,210.568,202.943,252.219,254.105,252.174z"/>
</g>
</svg>
