<!--?xml version="1.0" standalone="no"?-->

<svg version="1.0" xmlns="http://www.w3.org/2000/svg" width="300.000000pt" height="300.000000pt" viewBox="0 0 300.000000 300.000000" preserveAspectRatio="xMidYMid meet">
<g transform="translate(0.000000,300.000000) scale(0.100000,-0.100000)" fill="#873752" stroke="none">
<path d="M1390 2902 c0 -29 26 -57 70 -77 l42 -19 46 24 c30 16 50 35 56 52
13 36 3 45 -28 24 -32 -20 -124 -21 -150 -1 -26 20 -36 19 -36 -3z" id="node1" class="node"></path>
<path d="M1175 2890 c-98 -15 -166 -50 -226 -118 -47 -52 -59 -80 -80 -182
-12 -57 -20 -71 -66 -117 -32 -33 -60 -53 -75 -53 -22 -1 -58 -21 -58 -33 0
-9 71 -27 108 -27 37 0 37 1 17 -63 -33 -111 -113 -220 -185 -255 -47 -23
-173 -22 -217 1 -51 27 -87 79 -98 144 -8 44 -15 59 -29 61 -18 4 -19 -1 -12
-69 6 -74 40 -164 71 -189 8 -7 15 -19 15 -26 0 -8 5 -14 10 -14 6 0 23 -11
38 -26 37 -34 117 -70 187 -83 76 -14 235 -14 310 0 78 14 188 67 272 131 64
47 153 132 153 144 0 3 17 25 38 49 20 23 44 55 52 71 8 16 18 31 21 34 4 3
21 33 38 68 17 34 36 62 41 62 5 0 24 -28 41 -62 17 -35 34 -65 38 -68 3 -3
13 -18 21 -34 8 -16 32 -48 52 -71 21 -24 38 -46 38 -49 0 -12 89 -97 153
-144 84 -64 194 -117 272 -131 75 -14 234 -14 310 0 85 16 155 52 213 109 67
67 100 136 108 229 7 68 6 73 -12 69 -14 -2 -21 -17 -29 -61 -11 -65 -47 -117
-98 -144 -44 -23 -170 -24 -217 -1 -72 35 -152 144 -185 255 -20 64 -20 63 18
63 36 0 107 18 107 27 0 12 -36 32 -58 33 -15 0 -43 20 -75 53 -46 46 -54 60
-66 117 -21 102 -33 130 -80 182 -73 82 -158 118 -281 120 -62 1 -93 -3 -116
-15 -38 -20 -98 -87 -125 -139 -11 -21 -24 -38 -29 -38 -5 0 -18 17 -29 38
-26 50 -87 119 -120 136 -35 18 -115 25 -176 16z" id="node2" class="node"></path>
<path d="M1449 2190 c-9 -5 -31 -38 -49 -72 -18 -35 -41 -72 -51 -84 -11 -11
-19 -24 -19 -27 0 -21 -107 -108 -175 -145 -126 -67 -343 -99 -475 -71 -58 12
-75 5 -83 -39 -14 -69 -19 -88 -27 -107 -5 -11 -11 -40 -15 -65 -3 -25 -11
-74 -16 -110 -16 -102 -23 -280 -10 -280 14 0 25 25 41 92 15 64 45 103 60 78
6 -8 10 -91 10 -185 1 -93 5 -192 11 -220 5 -27 12 -69 15 -93 4 -23 11 -45
15 -48 5 -3 9 -16 9 -29 0 -13 4 -27 10 -30 6 -3 10 -13 10 -21 0 -54 138
-260 159 -239 7 7 7 33 1 75 -10 66 -4 146 11 155 4 3 27 -34 50 -81 130 -273
390 -482 674 -543 28 -6 71 -15 97 -21 58 -12 105 -13 112 -1 8 13 -14 28 -55
35 -41 7 -84 48 -76 70 3 8 32 32 65 54 83 55 115 85 194 182 76 94 158 248
158 298 0 18 4 32 9 32 16 0 22 -69 15 -166 -7 -91 -6 -94 14 -94 17 0 31 19
67 94 25 51 45 96 45 100 0 3 8 25 19 49 10 23 24 62 31 87 7 25 16 56 20 70
14 42 30 199 33 319 2 63 8 116 13 118 5 2 20 -22 34 -52 29 -63 46 -75 61
-41 11 24 2 151 -21 286 -5 30 -12 71 -15 90 -6 38 -18 87 -37 150 -10 36 -14
40 -37 36 -81 -15 -119 -16 -208 -6 -54 7 -107 15 -118 20 -11 4 -38 13 -60
19 -50 16 -149 66 -195 100 -58 43 -114 102 -169 181 -29 41 -60 78 -69 82
-25 10 -65 9 -83 -2z" id="node3" class="node"></path>
</g>
<g transform="translate(0.000000,300.000000) scale(0.100000,-0.100000)" fill="#34CF64" stroke="none">

</g>
</svg>