<?xml version="1.0" encoding="utf-8"?>
<!-- Generator: Adobe Illustrator 16.0.3, SVG Export Plug-In . SVG Version: 6.00 Build 0)  -->
<!DOCTYPE svg PUBLIC "-//W3C//DTD SVG 1.1//EN" "http://www.w3.org/Graphics/SVG/1.1/DTD/svg11.dtd">
<svg version="1.1" id="Layer_1" xmlns="http://www.w3.org/2000/svg" xmlns:xlink="http://www.w3.org/1999/xlink" x="0px" y="0px"
	 width="500px" height="500px" viewBox="0 0 500 500" enable-background="new 0 0 500 500" xml:space="preserve">
<g>
	<path d="M376.243,491c-16.306-0.132-31.98-3.474-47.153-8.625c-21.612-7.341-43.138-14.988-64.394-23.251
		c-26.167-10.171-49.708-24.901-72.061-41.442c-30.713-22.729-58.486-48.543-84.361-76.316
		c-19.658-21.102-37.624-43.461-52.764-67.887c-9.127-14.725-16.932-30.102-23.031-46.22c-8.251-21.799-17.568-43.245-23.572-65.81
		c-8.969-33.711-3.613-65.559,13.832-95.55c5.563-9.564,12.246-18.575,19.04-27.384c6.226-8.07,14.722-13.368,24.783-16.329
		c12.554-3.694,25.219-6.59,38.337-7.737c8.246-0.721,14.227,1.966,18.252,8.925c6.559,11.334,13.133,22.659,19.691,33.993
		c7.555,13.055,14.998,26.173,22.703,39.144c2.781,4.683,6.252,8.975,9.273,13.53c2.029,3.061,3.982,6.19,5.686,9.43
		c3.666,6.975,3.425,13.919-1.955,19.865c-5.746,6.347-11.785,12.517-18.262,18.15c-9.595,8.345-19.807,16.017-29.5,24.259
		c-3.24,2.755-5.871,6.254-8.463,9.641c-2.572,3.362-3.078,7.271-1.611,11.251c1.295,3.518,2.363,7.207,4.272,10.403
		c12.065,20.202,23.998,40.474,38.479,59.221c26.248,33.978,58.414,61.493,95.623,83.59c9.346,5.55,18.75,11.015,28.283,16.252
		c3.942,2.166,8.27,3.691,12.465,5.403c5.29,2.158,10.4,1.371,14.51-2.27c6.053-5.365,11.962-10.949,17.392-16.903
		c7.667-8.408,14.686-17.372,22.295-25.829c3.383-3.764,7.424-6.998,11.36-10.252c7.022-5.809,14.699-6.122,22.611-1.854
		c3.717,2.006,7.223,4.377,10.884,6.488c14.902,8.598,29.747,17.297,44.772,25.688c12.396,6.92,25.035,13.424,37.521,20.192
		c2.474,1.341,4.714,3.075,7.096,4.576c4.896,3.085,7.02,7.522,6.688,13.08c-1.007,16.974-4.681,33.402-11.835,48.922
		c-3.826,8.298-10.946,14.146-18.308,19.479c-20.592,14.914-43.027,26.015-68.627,30.145
		C389.612,490.031,382.897,490.343,376.243,491z"/>
</g>
</svg>
